<?xml version="1.0" standalone="no"?><!DOCTYPE svg PUBLIC "-//W3C//DTD SVG 1.1//EN" "http://www.w3.org/Graphics/SVG/1.1/DTD/svg11.dtd"><svg t="1648195477343" class="icon" viewBox="0 0 5431 1024" version="1.1" xmlns="http://www.w3.org/2000/svg" p-id="37007" xmlns:xlink="http://www.w3.org/1999/xlink" width="1060.7421875" height="200"><defs><style type="text/css">@font-face { font-family: feedback-iconfont; src: url("//at.alicdn.com/t/font_1031158_u69w8yhxdu.woff2?t=1630033759944") format("woff2"), url("//at.alicdn.com/t/font_1031158_u69w8yhxdu.woff?t=1630033759944") format("woff"), url("//at.alicdn.com/t/font_1031158_u69w8yhxdu.ttf?t=1630033759944") format("truetype"); }
</style></defs><path d="M502.205217 0v99.372522H103.646609v235.074782h355.817739v99.372522H103.646609v238.280348h413.517913v100.441043H0V0h502.205217z m625.085218 330.173217v442.368h-99.372522V699.881739c-15.671652 20.658087-38.466783 39.713391-68.385391 57.165913s-63.75513 26.178783-101.509565 26.178783c-42.028522 0-79.961043-9.082435-113.797566-27.247305a198.121739 198.121739 0 0 1-80.13913-79.604869c-19.589565-34.905043-29.384348-76.577391-29.384348-125.017044 0-48.439652 10.150957-90.646261 30.45287-126.619826a215.218087 215.218087 0 0 1 82.276174-83.344695c34.54887-19.589565 72.837565-29.384348 114.866086-29.384348 37.754435 0 70.522435 8.192 98.304 24.576A200.169739 200.169739 0 0 1 1027.917913 400.695652l7.479652-70.522435h91.89287z m-242.554435 370.777044c36.329739 0 67.494957-10.150957 93.495652-30.45287 26.000696-20.301913 42.562783-47.905391 49.686261-82.810434v-87.618783a136.281043 136.281043 0 0 0-53.426087-76.399304 154.490435 154.490435 0 0 0-92.961391-29.384348c-26.35687 0-50.754783 6.41113-73.193739 19.233391a141.401043 141.401043 0 0 0-53.426087 53.960348c-13.178435 23.151304-19.767652 49.330087-19.767652 78.536348a155.291826 155.291826 0 0 0 74.796521 134.099478 141.04487 141.04487 0 0 0 74.796522 20.836174z m540.672 81.207652a257.647304 257.647304 0 0 1-93.495652-17.096348c-29.562435-11.397565-53.604174-28.137739-72.125218-50.220522l42.74087-57.700173c17.808696 17.096348 36.507826 30.274783 56.097391 39.535304 19.589565 9.260522 39.001043 13.890783 58.234435 13.890783 23.507478 0 42.74087-4.630261 57.700174-13.890783 14.959304-9.260522 22.438957-23.507478 22.438957-42.74087 0-14.959304-4.630261-27.069217-13.890783-36.329739a85.570783 85.570783 0 0 0-31.521391-20.301913c-11.753739-4.274087-31.521391-10.685217-59.302957-19.233391-75.50887-24.219826-113.263304-67.31687-113.263304-129.291131 0-37.042087 13.712696-68.741565 41.138087-95.098434 27.425391-26.35687 65.714087-39.535304 114.866087-39.535305 31.343304 0 59.12487 3.917913 83.344695 11.753739a203.01913 203.01913 0 0 1 67.31687 37.398261l-39.535304 60.905739a121.366261 121.366261 0 0 0-43.275131-28.850087 149.860174 149.860174 0 0 0-49.686261-11.753739c-19.945739 0-37.042087 4.808348-51.289043 14.425044-14.246957 9.616696-21.370435 22.617043-21.370435 39.001043 0 13.534609 4.630261 24.754087 13.890783 33.658435 9.260522 8.904348 18.877217 15.315478 28.850087 19.233391 9.97287 3.917913 29.562435 10.50713 58.768695 19.767653 36.329739 12.109913 64.645565 27.781565 84.947478 47.014956 20.301913 19.233391 30.45287 45.234087 30.45287 78.002087 0 42.74087-14.959304 78.002087-44.877913 105.783652-29.918609 27.781565-72.303304 41.672348-127.154087 41.672348z m731.937391-451.984696l-285.295304 655.003826H1773.746087l101.509565-227.59513-205.156174-427.408696h112.194783l143.181913 315.213913 139.976348-315.213913h91.892869z m556.699826 442.368l-181.648695-285.295304a225.28 225.28 0 0 1-25.644522 1.068522h-114.331826v284.226782h-103.646609V0h206.224696c52.713739 0 99.728696 9.260522 141.044869 27.781565 41.316174 18.521043 73.728 45.768348 97.235479 81.741913 23.507478 35.973565 35.261217 79.248696 35.261217 129.825392 0 47.727304-10.50713 91.536696-31.521391 131.428173-21.014261 39.891478-53.248 70.166261-96.701218 90.824348l194.470957 310.939826H2714.045217z m-209.43026-384.667826c55.56313 0 95.632696-14.60313 120.208695-43.809391a151.552 151.552 0 0 0 36.864-100.441043c0-22.79513-5.164522-45.234087-15.493565-67.31687-10.329043-22.082783-26.713043-40.425739-49.152-55.02887-22.438957-14.60313-50.754783-21.904696-84.947478-21.904695h-119.674435v288.500869h112.194783z m658.209391 309.871305c37.042087 0 73.015652-12.822261 107.920695-38.466783l45.946435 73.728c-23.507478 15.671652-48.973913 27.959652-76.399304 36.864-27.425391 8.904348-53.960348 13.356522-79.60487 13.356522-49.152 0-92.070957-10.150957-128.756869-30.45287a213.882435 213.882435 0 0 1-84.947478-83.878956c-19.945739-35.617391-29.918609-75.865043-29.918609-120.742957 0-43.453217 10.863304-83.166609 32.589913-119.140174a236.588522 236.588522 0 0 1 89.221565-85.481739 250.568348 250.568348 0 0 1 123.948522-31.521391c57.700174 0 105.961739 16.918261 144.784695 50.754782 38.822957 33.836522 65.357913 81.029565 79.60487 141.579131l-350.47513 122.88c12.822261 22.082783 30.096696 39.357217 51.823304 51.823304 21.726609 12.466087 46.480696 18.69913 74.262261 18.699131z m-7.479652-306.665739c-40.603826 0-74.084174 14.246957-100.441044 42.740869-26.35687 28.493913-39.535304 64.823652-39.535304 108.989217 0 10.685217 0.356174 18.877217 1.068522 24.576l257.513739-95.098434a147.010783 147.010783 0 0 0-45.412174-58.768696c-19.589565-14.959304-43.987478-22.438957-73.193739-22.438956z m635.770434-79.070609c41.316174 0 78.714435 9.97287 112.194783 29.918609a211.344696 211.344696 0 0 1 79.070609 83.878956c19.233391 35.973565 28.850087 77.467826 28.850087 124.482783 0 46.302609-10.329043 87.084522-30.987131 122.345739a212.23513 212.23513 0 0 1-85.481739 81.741913c-36.329739 19.233391-76.933565 28.850087-121.811478 28.850087-32.055652 0-62.686609-6.945391-91.89287-20.836174-29.206261-13.890783-52.713739-32.589913-70.522434-56.097391v278.884173h-99.372522V322.693565h86.550261L3606.26087 397.490087a265.661217 265.661217 0 0 1 81.741913-61.974261 229.465043 229.465043 0 0 1 103.112347-23.507478z m-37.39826 391.078956c27.781565 0 53.604174-6.589217 77.467826-19.767652a152.709565 152.709565 0 0 0 57.165913-54.494609c14.246957-23.151304 21.370435-48.973913 21.370434-77.467826 0-29.206261-6.589217-55.56313-19.767652-79.070608A147.010783 147.010783 0 0 0 3835.993043 416.723478a145.808696 145.808696 0 0 0-75.865043-20.301913c-37.754435 0-69.988174 10.50713-96.701217 31.521392-26.713043 21.014261-44.343652 49.330087-52.891826 84.947478v73.728a132.808348 132.808348 0 0 0 48.617739 83.878956c26.713043 21.726609 58.234435 32.589913 94.564174 32.589913z m352.612173-156.004174c0-43.453217 10.50713-83.166609 31.521392-119.140173a225.814261 225.814261 0 0 1 87.618782-84.947479c37.398261-20.658087 79.60487-30.98713 126.619826-30.98713 47.014957 0 88.865391 10.329043 125.551305 30.98713a221.273043 221.273043 0 0 1 85.481739 84.413218c20.301913 35.617391 30.45287 75.50887 30.45287 119.674434 0 44.165565-10.150957 84.23513-30.45287 120.208696a219.225043 219.225043 0 0 1-86.016 84.947478c-37.042087 20.658087-79.426783 30.98713-127.154087 30.987131-46.302609 0-87.974957-9.794783-125.017043-29.384348a216.687304 216.687304 0 0 1-87.084522-82.810435c-21.014261-35.617391-31.521391-76.933565-31.521392-123.948522z m100.441044 1.068522c0 27.781565 6.233043 53.426087 18.69913 76.933565 12.466087 23.507478 29.562435 42.028522 51.289044 55.563131a133.698783 133.698783 0 0 0 72.125217 20.301913c41.316174 0 75.50887-14.60313 102.578087-43.809391 27.069217-29.206261 40.603826-65.536 40.603826-108.989218s-13.534609-79.961043-40.603826-109.523478c-27.069217-29.562435-61.261913-44.343652-102.578087-44.343652-27.069217 0-51.289043 6.945391-72.659478 20.836174-21.370435 13.890783-38.288696 32.589913-50.754783 56.097391a161.658435 161.658435 0 0 0-18.69913 76.933565z m616.537043-113.263304a196.34087 196.34087 0 0 1 48.61774-64.111305 246.739478 246.739478 0 0 1 66.782608-42.740869c23.507478-9.97287 44.165565-15.315478 61.974261-16.027826l-4.274087 99.372522c-32.055652-1.424696-61.083826 4.986435-87.084522 19.233391-26.000696 14.246957-46.302609 34.014609-60.905739 59.302956a158.764522 158.764522 0 0 0-21.904695 80.673392v201.950608h-99.372522V330.173217h88.687304l7.479652 104.715131z m448.779131-299.186087V331.241739h120.742956v79.070609h-120.742956v362.228869h-100.441044V410.312348h-81.207652V331.241739h81.207652V135.702261h100.441044z" fill="#000000" p-id="37008"></path></svg>